<svg width="100" height="100" viewBox="0 0 100 100" fill="none" xmlns="http://www.w3.org/2000/svg">
<circle cx="50" cy="50" r="48.5" stroke="#625FF4" stroke-width="3"/>
<path d="M43.9109 68.0227V67.669C43.9502 63.916 44.3432 60.9292 45.0899 58.7088C45.8366 56.4884 46.8977 54.6905 48.2731 53.315C49.6486 51.9395 51.2992 50.6721 53.2248 49.5128C54.3842 48.8054 55.4256 47.9703 56.3491 47.0075C57.2727 46.025 57.9997 44.8951 58.5302 43.6179C59.0804 42.3407 59.3555 40.9259 59.3555 39.3736C59.3555 37.4479 58.9036 35.7777 57.9997 34.3629C57.0958 32.9482 55.8874 31.8576 54.3743 31.0913C52.8613 30.3249 51.1813 29.9418 49.3342 29.9418C47.7229 29.9418 46.1706 30.2758 44.6772 30.9439C43.1839 31.612 41.9361 32.6632 40.934 34.0977C39.9319 35.5321 39.3522 37.4086 39.195 39.7273H31.7674C31.9246 36.3868 32.7892 33.5278 34.3612 31.1502C35.9528 28.7726 38.0455 26.955 40.6392 25.6974C43.2526 24.4399 46.151 23.8111 49.3342 23.8111C52.7925 23.8111 55.7989 24.4988 58.3534 25.8743C60.9275 27.2498 62.9121 29.1361 64.3072 31.5334C65.722 33.9306 66.4294 36.6619 66.4294 39.7273C66.4294 41.8887 66.0953 43.8439 65.4272 45.5927C64.7788 47.3415 63.8356 48.9036 62.5977 50.2791C61.3794 51.6546 59.9057 52.8729 58.1765 53.9339C56.4474 55.0147 55.0621 56.1544 54.0206 57.353C52.9792 58.532 52.2227 59.9369 51.7511 61.5678C51.2795 63.1987 51.0241 65.2325 50.9848 67.669V68.0227H43.9109ZM47.6836 85.4716C46.2296 85.4716 44.9818 84.9509 43.9404 83.9094C42.899 82.868 42.3782 81.6203 42.3782 80.1662C42.3782 78.7121 42.899 77.4644 43.9404 76.4229C44.9818 75.3815 46.2296 74.8608 47.6836 74.8608C49.1377 74.8608 50.3855 75.3815 51.4269 76.4229C52.4683 77.4644 52.989 78.7121 52.989 80.1662C52.989 81.129 52.7434 82.0133 52.2522 82.8189C51.7806 83.6245 51.142 84.273 50.3363 84.7642C49.5504 85.2358 48.6661 85.4716 47.6836 85.4716Z" fill="#625FF4"/>
</svg>
