<svg width="41" height="60" viewBox="0 0 41 60" fill="none" xmlns="http://www.w3.org/2000/svg">
<path d="M10.2344 54.4785H12.1094C12.0117 55.377 11.7546 56.181 11.3379 56.8906C10.9212 57.6003 10.332 58.1634 9.57031 58.5801C8.80859 58.9902 7.85807 59.1953 6.71875 59.1953C5.88542 59.1953 5.12695 59.0391 4.44336 58.7266C3.76628 58.4141 3.18359 57.9714 2.69531 57.3984C2.20703 56.819 1.82943 56.1257 1.5625 55.3184C1.30208 54.5046 1.17188 53.5996 1.17188 52.6035V51.1875C1.17188 50.1914 1.30208 49.2897 1.5625 48.4824C1.82943 47.6686 2.21029 46.972 2.70508 46.3926C3.20638 45.8132 3.80859 45.3672 4.51172 45.0547C5.21484 44.7422 6.00586 44.5859 6.88477 44.5859C7.95898 44.5859 8.86719 44.7878 9.60938 45.1914C10.3516 45.5951 10.9277 46.1549 11.3379 46.8711C11.7546 47.5807 12.0117 48.4043 12.1094 49.3418H10.2344C10.1432 48.6777 9.97396 48.1081 9.72656 47.6328C9.47917 47.151 9.1276 46.7799 8.67188 46.5195C8.21615 46.2591 7.62044 46.1289 6.88477 46.1289C6.25326 46.1289 5.69661 46.2493 5.21484 46.4902C4.73958 46.7311 4.33919 47.0729 4.01367 47.5156C3.69466 47.9583 3.45378 48.4889 3.29102 49.1074C3.12826 49.7259 3.04688 50.4128 3.04688 51.168V52.6035C3.04688 53.3001 3.11849 53.9544 3.26172 54.5664C3.41146 55.1784 3.63607 55.7155 3.93555 56.1777C4.23503 56.64 4.61589 57.0046 5.07812 57.2715C5.54036 57.5319 6.08724 57.6621 6.71875 57.6621C7.51953 57.6621 8.15755 57.5352 8.63281 57.2812C9.10807 57.0273 9.46615 56.6628 9.70703 56.1875C9.95443 55.7122 10.1302 55.1426 10.2344 54.4785ZM16.2109 44V59H14.4043V44H16.2109ZM15.7812 53.3164L15.0293 53.2871C15.0358 52.5645 15.1432 51.8971 15.3516 51.2852C15.5599 50.6667 15.8529 50.1296 16.2305 49.6738C16.6081 49.2181 17.0573 48.8665 17.5781 48.6191C18.1055 48.3652 18.6882 48.2383 19.3262 48.2383C19.847 48.2383 20.3158 48.3099 20.7324 48.4531C21.1491 48.5898 21.5039 48.8112 21.7969 49.1172C22.0964 49.4232 22.3242 49.8203 22.4805 50.3086C22.6367 50.7904 22.7148 51.3796 22.7148 52.0762V59H20.8984V52.0566C20.8984 51.5033 20.8171 51.0605 20.6543 50.7285C20.4915 50.39 20.2539 50.1458 19.9414 49.9961C19.6289 49.8398 19.2448 49.7617 18.7891 49.7617C18.3398 49.7617 17.9297 49.8561 17.5586 50.0449C17.194 50.2337 16.8783 50.4941 16.6113 50.8262C16.3509 51.1582 16.1458 51.5391 15.9961 51.9688C15.8529 52.3919 15.7812 52.8411 15.7812 53.3164ZM31.6504 57.1934V51.7539C31.6504 51.3372 31.5658 50.9759 31.3965 50.6699C31.2337 50.3574 30.9863 50.1165 30.6543 49.9473C30.3223 49.778 29.9121 49.6934 29.4238 49.6934C28.9681 49.6934 28.5677 49.7715 28.2227 49.9277C27.8841 50.084 27.6172 50.2891 27.4219 50.543C27.2331 50.7969 27.1387 51.0703 27.1387 51.3633H25.332C25.332 50.9857 25.4297 50.6113 25.625 50.2402C25.8203 49.8691 26.1003 49.5339 26.4648 49.2344C26.8359 48.9284 27.2786 48.6875 27.793 48.5117C28.3138 48.3294 28.8932 48.2383 29.5312 48.2383C30.2995 48.2383 30.9766 48.3685 31.5625 48.6289C32.1549 48.8893 32.6172 49.2832 32.9492 49.8105C33.2878 50.3314 33.457 50.9857 33.457 51.7734V56.6953C33.457 57.0469 33.4863 57.4212 33.5449 57.8184C33.61 58.2155 33.7044 58.5573 33.8281 58.8438V59H31.9434C31.8522 58.7917 31.7806 58.515 31.7285 58.1699C31.6764 57.8184 31.6504 57.4928 31.6504 57.1934ZM31.9629 52.5938L31.9824 53.8633H30.1562C29.6419 53.8633 29.1829 53.9056 28.7793 53.9902C28.3757 54.0684 28.0371 54.1888 27.7637 54.3516C27.4902 54.5143 27.2819 54.7194 27.1387 54.9668C26.9954 55.2077 26.9238 55.4909 26.9238 55.8164C26.9238 56.1484 26.9987 56.4512 27.1484 56.7246C27.2982 56.998 27.5228 57.2161 27.8223 57.3789C28.1283 57.5352 28.5026 57.6133 28.9453 57.6133C29.4987 57.6133 29.987 57.4961 30.4102 57.2617C30.8333 57.0273 31.1686 56.7409 31.416 56.4023C31.6699 56.0638 31.8066 55.735 31.8262 55.416L32.5977 56.2852C32.5521 56.5586 32.4284 56.8613 32.2266 57.1934C32.0247 57.5254 31.7546 57.8444 31.416 58.1504C31.084 58.4499 30.6868 58.7005 30.2246 58.9023C29.7689 59.0977 29.2546 59.1953 28.6816 59.1953C27.9655 59.1953 27.3372 59.0553 26.7969 58.7754C26.263 58.4954 25.8464 58.1211 25.5469 57.6523C25.2539 57.1771 25.1074 56.6465 25.1074 56.0605C25.1074 55.4941 25.2181 54.9961 25.4395 54.5664C25.6608 54.1302 25.9798 53.7689 26.3965 53.4824C26.8132 53.1895 27.3145 52.9681 27.9004 52.8184C28.4863 52.6686 29.1406 52.5938 29.8633 52.5938H31.9629ZM40.7227 48.4336V49.8203H35.0098V48.4336H40.7227ZM36.9434 45.8652H38.75V56.3828C38.75 56.7409 38.8053 57.0111 38.916 57.1934C39.0267 57.3757 39.1699 57.4961 39.3457 57.5547C39.5215 57.6133 39.7103 57.6426 39.9121 57.6426C40.0618 57.6426 40.2181 57.6296 40.3809 57.6035C40.5501 57.571 40.6771 57.5449 40.7617 57.5254L40.7715 59C40.6283 59.0456 40.4395 59.0879 40.2051 59.127C39.9772 59.1725 39.7005 59.1953 39.375 59.1953C38.9323 59.1953 38.5254 59.1074 38.1543 58.9316C37.7832 58.7559 37.487 58.4629 37.2656 58.0527C37.0508 57.6361 36.9434 57.0762 36.9434 56.373V45.8652Z" fill="black"/>
<path d="M0.5 10C0.5 4.75329 4.75329 0.5 10 0.5H27C32.2467 0.5 36.5 4.7533 36.5 10V24.5H10C4.7533 24.5 0.5 20.2467 0.5 15V10Z" fill="white" stroke="black"/>
<line x1="7" y1="7.5" x2="31" y2="7.5" stroke="black"/>
<path d="M7 13H31" stroke="black"/>
<path d="M7 18H31" stroke="black"/>
</svg>
