<svg width="40" height="28" viewBox="0 0 40 28" fill="none" xmlns="http://www.w3.org/2000/svg">
<mask id="path-1-inside-1_722_2858" fill="white">
<path fill-rule="evenodd" clip-rule="evenodd" d="M4.77914 3.86883C0.308274 7.48804 0 7.7524 0 7.96676C0 8.17819 0.180223 8.34235 2.33182 10.0911L4.66364 11.9863L5.25533 14.3908L5.84702 16.7952L5.43769 17.1578C4.47841 18.0075 4.34413 18.9226 5.05477 19.7677C5.4399 20.2257 6.07277 20.5729 6.69802 20.669L7.18717 20.7443L7.28019 21.1403C7.48133 21.9971 8.62895 22.8438 9.58921 22.8438C9.78994 22.8438 9.8134 22.8744 9.90216 23.2525C10.092 24.061 10.9614 24.7673 11.9551 24.9201L12.4513 24.9964L12.4901 25.2754C12.576 25.8924 13.2299 26.5955 14.0052 26.9046C14.3131 27.0273 14.5277 27.06 15.0117 27.0582C15.7731 27.0552 16.2185 26.8954 16.9107 26.3767L17.3944 26.0141L18.1923 26.6394C19.0461 27.3084 19.5275 27.5417 20.1849 27.6047C21.3862 27.7198 22.6717 26.9251 22.9073 25.9215L23.0003 25.5256L23.4895 25.4503C24.4683 25.2997 25.3463 24.5889 25.5323 23.7965L25.6253 23.4006L26.1145 23.3253C27.0933 23.1747 27.9713 22.4639 28.1573 21.6715L28.2503 21.2756L28.7395 21.2003C29.3647 21.1041 29.9976 20.7569 30.3827 20.2989C31.0684 19.4835 30.9612 18.5664 30.0862 17.7617L29.7542 17.4564L29.9157 17.278C30.0046 17.1799 31.0671 15.9939 32.2769 14.6426L34.4767 12.1855L36.9258 10.1908C39.188 8.34846 39.375 8.17866 39.375 7.96689C39.375 7.75233 39.0677 7.48883 34.5959 3.86883C30.1251 0.249555 29.7985 0 29.5337 0C29.2726 0 29.069 0.146227 26.9095 1.88514C25.6219 2.92201 24.4945 3.80003 24.4043 3.83629C24.0304 3.98663 20.1988 5.17969 20.0899 5.17969C20.0249 5.17969 18.8105 4.86598 17.3912 4.48255L14.8107 3.78549L12.4675 1.89271C10.3045 0.145496 10.1026 0 9.84129 0C9.57649 0 9.24993 0.249555 4.77914 3.86883ZM11.6898 2.78933L13.4933 4.25046L9.37174 7.58705L5.25016 10.9236L3.42513 9.44616L1.60018 7.96882L5.70117 4.64844C7.9567 2.82227 9.82103 1.32812 9.84416 1.32812C9.86729 1.32812 10.6978 1.98568 11.6898 2.78933ZM33.6738 4.64844L37.7748 7.96882L35.9499 9.44616L34.1248 10.9236L30.0033 7.58705L25.8817 4.25046L27.6852 2.78933C28.6772 1.98568 29.5077 1.32812 29.5308 1.32812C29.554 1.32812 31.4183 2.82227 33.6738 4.64844ZM18.0447 5.7881C18.1111 5.80583 17.9027 5.90385 17.5817 6.00578C17.004 6.18926 16.9629 6.21968 13.6391 8.92274C9.87 11.9879 9.89272 11.9644 9.88772 12.8164C9.88419 13.4161 10.0822 13.7958 10.6295 14.2389C11.1768 14.682 11.646 14.8423 12.3867 14.8394C13.3566 14.8357 13.5653 14.7249 15.466 13.2039L17.1098 11.8885L17.4208 12.0596C18.454 12.6279 19.9582 12.8661 21.3109 12.6754L21.8403 12.6007L25.5681 15.6138C27.6184 17.2711 29.3488 18.7076 29.4135 18.8063C29.6888 19.2257 29.4621 19.8447 28.9519 20.0662C28.638 20.2025 28.1344 20.2246 27.8647 20.114C27.7662 20.0736 27.0204 19.5055 26.2073 18.8516L24.7291 17.6626L24.2598 18.0465L23.7905 18.4304L25.2309 19.5912C26.0231 20.2296 26.7241 20.8326 26.7888 20.9313C26.9501 21.1775 26.936 21.5723 26.7564 21.8435C26.4828 22.2565 25.7185 22.44 25.2 22.2174C25.0782 22.1651 24.3333 21.5976 23.5446 20.9563L22.1107 19.7903L21.6365 20.1701L21.1623 20.55L22.631 21.7467C23.4388 22.4049 24.1406 23.0086 24.1904 23.0884C24.3271 23.3067 24.2998 23.7144 24.1314 23.9685C23.8578 24.3815 23.0935 24.565 22.575 24.3424C22.4532 24.2901 21.7083 23.7226 20.9196 23.0813L19.4857 21.9153L19.0115 22.2951L18.5373 22.675L20.006 23.8717C20.8138 24.5299 21.5156 25.1336 21.5654 25.2134C21.7021 25.4317 21.6748 25.8394 21.5064 26.0935C21.2329 26.5063 20.469 26.6899 19.95 26.4676C19.8282 26.4154 19.3872 26.0937 18.9701 25.7527L18.2115 25.1328L18.3102 24.7519C18.4433 24.2382 18.309 23.7238 17.9233 23.2705C17.4732 22.7414 16.614 22.3125 16.0045 22.3125C15.8038 22.3125 15.7804 22.2819 15.6916 21.9037C15.501 21.092 14.6327 20.389 13.63 20.2348C13.1628 20.1629 13.125 20.1439 13.125 19.9814C13.125 19.2041 12.0791 18.2751 11.0207 18.1122L10.5316 18.0369L10.4386 17.641C10.2036 16.6401 8.90728 15.8366 7.72685 15.9602C7.51505 15.9824 7.26461 16.0184 7.17019 16.0404C7.00588 16.0786 6.97659 15.9912 6.4803 13.9778L5.96203 11.8752L10.2924 8.36925L14.6227 4.86326L16.2733 5.30951C17.181 5.55495 17.9782 5.7703 18.0447 5.7881ZM29.0295 8.32628C32.0531 10.7743 33.2248 11.7637 33.1759 11.8278C33.0747 11.9604 28.9479 16.5577 28.8625 16.6329C28.8172 16.6729 27.7157 15.8286 25.9697 14.4157L23.1501 12.1339L23.5312 11.9029C24.0201 11.6065 24.6914 11.0811 24.6914 10.995C24.6914 10.9109 23.9444 10.293 23.8427 10.293C23.8011 10.293 23.4964 10.5012 23.1655 10.7556C22.8345 11.0101 22.3872 11.2907 22.1716 11.3791C20.6483 12.0035 19.0415 11.8408 17.7325 10.9295C17.0012 10.4203 17.08 10.3866 14.8927 12.1448C13.8528 12.9807 12.9213 13.6979 12.8228 13.7386C12.5537 13.8496 12.05 13.8276 11.7356 13.6912C11.2254 13.4697 10.9987 12.8507 11.274 12.4312C11.3387 12.3326 12.8296 11.09 14.587 9.66981L17.7826 7.08767L21.1755 6.00664C23.0415 5.41211 24.6239 4.92303 24.6917 4.91984C24.7596 4.91665 26.7116 6.44957 29.0295 8.32628ZM4.75683 7.60431L4.31033 7.97028L4.78021 8.35065L5.25 8.73096L5.71979 8.35065L6.18967 7.97028L5.74317 7.60431C5.49757 7.40297 5.27568 7.23828 5.25 7.23828C5.22432 7.23828 5.00243 7.40297 4.75683 7.60431ZM33.6318 7.60431L33.1853 7.97028L33.6552 8.35065L34.125 8.73096L34.5948 8.35065L35.0647 7.97028L34.6182 7.60431C34.3726 7.40297 34.1507 7.23828 34.125 7.23828C34.0993 7.23828 33.8774 7.40297 33.6318 7.60431ZM8.6082 17.1213C9.09645 17.3333 9.34377 17.9555 9.09628 18.3491C8.96478 18.5583 7.87377 19.4497 7.6125 19.5615C7.09324 19.7836 6.32953 19.6 6.05612 19.1873C5.87664 18.9164 5.86245 18.5215 6.02331 18.275C6.15325 18.0758 7.24869 17.1904 7.50586 17.0766C7.75843 16.9649 8.2982 16.9868 8.6082 17.1213ZM11.2332 19.2463C11.7214 19.4583 11.9688 20.0805 11.7213 20.4741C11.5898 20.6833 10.4988 21.5747 10.2375 21.6865C9.933 21.8167 9.44524 21.8052 9.11055 21.6599C8.60073 21.4386 8.37391 20.8204 8.64831 20.4C8.77825 20.2008 9.87369 19.3154 10.1309 19.2016C10.3834 19.0899 10.9232 19.1118 11.2332 19.2463ZM13.8582 21.3713C14.3464 21.5833 14.5938 22.2055 14.3463 22.5991C14.2148 22.8083 13.1238 23.6997 12.8625 23.8115C12.3432 24.0336 11.5795 23.85 11.3061 23.4373C11.1266 23.1664 11.1124 22.7715 11.2733 22.525C11.4032 22.3258 12.4987 21.4404 12.7559 21.3266C13.0084 21.2149 13.5482 21.2368 13.8582 21.3713ZM16.4832 23.4963C16.9714 23.7083 17.2188 24.3305 16.9713 24.7241C16.8398 24.9333 15.7488 25.8247 15.4875 25.9365C14.9682 26.1586 14.2045 25.975 13.9311 25.5623C13.7516 25.2914 13.7374 24.8965 13.8983 24.65C14.0282 24.4508 15.1237 23.5654 15.3809 23.4516C15.6334 23.3399 16.1732 23.3618 16.4832 23.4963Z"/>
</mask>
<path fill-rule="evenodd" clip-rule="evenodd" d="M4.77914 3.86883C0.308274 7.48804 0 7.7524 0 7.96676C0 8.17819 0.180223 8.34235 2.33182 10.0911L4.66364 11.9863L5.25533 14.3908L5.84702 16.7952L5.43769 17.1578C4.47841 18.0075 4.34413 18.9226 5.05477 19.7677C5.4399 20.2257 6.07277 20.5729 6.69802 20.669L7.18717 20.7443L7.28019 21.1403C7.48133 21.9971 8.62895 22.8438 9.58921 22.8438C9.78994 22.8438 9.8134 22.8744 9.90216 23.2525C10.092 24.061 10.9614 24.7673 11.9551 24.9201L12.4513 24.9964L12.4901 25.2754C12.576 25.8924 13.2299 26.5955 14.0052 26.9046C14.3131 27.0273 14.5277 27.06 15.0117 27.0582C15.7731 27.0552 16.2185 26.8954 16.9107 26.3767L17.3944 26.0141L18.1923 26.6394C19.0461 27.3084 19.5275 27.5417 20.1849 27.6047C21.3862 27.7198 22.6717 26.9251 22.9073 25.9215L23.0003 25.5256L23.4895 25.4503C24.4683 25.2997 25.3463 24.5889 25.5323 23.7965L25.6253 23.4006L26.1145 23.3253C27.0933 23.1747 27.9713 22.4639 28.1573 21.6715L28.2503 21.2756L28.7395 21.2003C29.3647 21.1041 29.9976 20.7569 30.3827 20.2989C31.0684 19.4835 30.9612 18.5664 30.0862 17.7617L29.7542 17.4564L29.9157 17.278C30.0046 17.1799 31.0671 15.9939 32.2769 14.6426L34.4767 12.1855L36.9258 10.1908C39.188 8.34846 39.375 8.17866 39.375 7.96689C39.375 7.75233 39.0677 7.48883 34.5959 3.86883C30.1251 0.249555 29.7985 0 29.5337 0C29.2726 0 29.069 0.146227 26.9095 1.88514C25.6219 2.92201 24.4945 3.80003 24.4043 3.83629C24.0304 3.98663 20.1988 5.17969 20.0899 5.17969C20.0249 5.17969 18.8105 4.86598 17.3912 4.48255L14.8107 3.78549L12.4675 1.89271C10.3045 0.145496 10.1026 0 9.84129 0C9.57649 0 9.24993 0.249555 4.77914 3.86883ZM11.6898 2.78933L13.4933 4.25046L9.37174 7.58705L5.25016 10.9236L3.42513 9.44616L1.60018 7.96882L5.70117 4.64844C7.9567 2.82227 9.82103 1.32812 9.84416 1.32812C9.86729 1.32812 10.6978 1.98568 11.6898 2.78933ZM33.6738 4.64844L37.7748 7.96882L35.9499 9.44616L34.1248 10.9236L30.0033 7.58705L25.8817 4.25046L27.6852 2.78933C28.6772 1.98568 29.5077 1.32812 29.5308 1.32812C29.554 1.32812 31.4183 2.82227 33.6738 4.64844ZM18.0447 5.7881C18.1111 5.80583 17.9027 5.90385 17.5817 6.00578C17.004 6.18926 16.9629 6.21968 13.6391 8.92274C9.87 11.9879 9.89272 11.9644 9.88772 12.8164C9.88419 13.4161 10.0822 13.7958 10.6295 14.2389C11.1768 14.682 11.646 14.8423 12.3867 14.8394C13.3566 14.8357 13.5653 14.7249 15.466 13.2039L17.1098 11.8885L17.4208 12.0596C18.454 12.6279 19.9582 12.8661 21.3109 12.6754L21.8403 12.6007L25.5681 15.6138C27.6184 17.2711 29.3488 18.7076 29.4135 18.8063C29.6888 19.2257 29.4621 19.8447 28.9519 20.0662C28.638 20.2025 28.1344 20.2246 27.8647 20.114C27.7662 20.0736 27.0204 19.5055 26.2073 18.8516L24.7291 17.6626L24.2598 18.0465L23.7905 18.4304L25.2309 19.5912C26.0231 20.2296 26.7241 20.8326 26.7888 20.9313C26.9501 21.1775 26.936 21.5723 26.7564 21.8435C26.4828 22.2565 25.7185 22.44 25.2 22.2174C25.0782 22.1651 24.3333 21.5976 23.5446 20.9563L22.1107 19.7903L21.6365 20.1701L21.1623 20.55L22.631 21.7467C23.4388 22.4049 24.1406 23.0086 24.1904 23.0884C24.3271 23.3067 24.2998 23.7144 24.1314 23.9685C23.8578 24.3815 23.0935 24.565 22.575 24.3424C22.4532 24.2901 21.7083 23.7226 20.9196 23.0813L19.4857 21.9153L19.0115 22.2951L18.5373 22.675L20.006 23.8717C20.8138 24.5299 21.5156 25.1336 21.5654 25.2134C21.7021 25.4317 21.6748 25.8394 21.5064 26.0935C21.2329 26.5063 20.469 26.6899 19.95 26.4676C19.8282 26.4154 19.3872 26.0937 18.9701 25.7527L18.2115 25.1328L18.3102 24.7519C18.4433 24.2382 18.309 23.7238 17.9233 23.2705C17.4732 22.7414 16.614 22.3125 16.0045 22.3125C15.8038 22.3125 15.7804 22.2819 15.6916 21.9037C15.501 21.092 14.6327 20.389 13.63 20.2348C13.1628 20.1629 13.125 20.1439 13.125 19.9814C13.125 19.2041 12.0791 18.2751 11.0207 18.1122L10.5316 18.0369L10.4386 17.641C10.2036 16.6401 8.90728 15.8366 7.72685 15.9602C7.51505 15.9824 7.26461 16.0184 7.17019 16.0404C7.00588 16.0786 6.97659 15.9912 6.4803 13.9778L5.96203 11.8752L10.2924 8.36925L14.6227 4.86326L16.2733 5.30951C17.181 5.55495 17.9782 5.7703 18.0447 5.7881ZM29.0295 8.32628C32.0531 10.7743 33.2248 11.7637 33.1759 11.8278C33.0747 11.9604 28.9479 16.5577 28.8625 16.6329C28.8172 16.6729 27.7157 15.8286 25.9697 14.4157L23.1501 12.1339L23.5312 11.9029C24.0201 11.6065 24.6914 11.0811 24.6914 10.995C24.6914 10.9109 23.9444 10.293 23.8427 10.293C23.8011 10.293 23.4964 10.5012 23.1655 10.7556C22.8345 11.0101 22.3872 11.2907 22.1716 11.3791C20.6483 12.0035 19.0415 11.8408 17.7325 10.9295C17.0012 10.4203 17.08 10.3866 14.8927 12.1448C13.8528 12.9807 12.9213 13.6979 12.8228 13.7386C12.5537 13.8496 12.05 13.8276 11.7356 13.6912C11.2254 13.4697 10.9987 12.8507 11.274 12.4312C11.3387 12.3326 12.8296 11.09 14.587 9.66981L17.7826 7.08767L21.1755 6.00664C23.0415 5.41211 24.6239 4.92303 24.6917 4.91984C24.7596 4.91665 26.7116 6.44957 29.0295 8.32628ZM4.75683 7.60431L4.31033 7.97028L4.78021 8.35065L5.25 8.73096L5.71979 8.35065L6.18967 7.97028L5.74317 7.60431C5.49757 7.40297 5.27568 7.23828 5.25 7.23828C5.22432 7.23828 5.00243 7.40297 4.75683 7.60431ZM33.6318 7.60431L33.1853 7.97028L33.6552 8.35065L34.125 8.73096L34.5948 8.35065L35.0647 7.97028L34.6182 7.60431C34.3726 7.40297 34.1507 7.23828 34.125 7.23828C34.0993 7.23828 33.8774 7.40297 33.6318 7.60431ZM8.6082 17.1213C9.09645 17.3333 9.34377 17.9555 9.09628 18.3491C8.96478 18.5583 7.87377 19.4497 7.6125 19.5615C7.09324 19.7836 6.32953 19.6 6.05612 19.1873C5.87664 18.9164 5.86245 18.5215 6.02331 18.275C6.15325 18.0758 7.24869 17.1904 7.50586 17.0766C7.75843 16.9649 8.2982 16.9868 8.6082 17.1213ZM11.2332 19.2463C11.7214 19.4583 11.9688 20.0805 11.7213 20.4741C11.5898 20.6833 10.4988 21.5747 10.2375 21.6865C9.933 21.8167 9.44524 21.8052 9.11055 21.6599C8.60073 21.4386 8.37391 20.8204 8.64831 20.4C8.77825 20.2008 9.87369 19.3154 10.1309 19.2016C10.3834 19.0899 10.9232 19.1118 11.2332 19.2463ZM13.8582 21.3713C14.3464 21.5833 14.5938 22.2055 14.3463 22.5991C14.2148 22.8083 13.1238 23.6997 12.8625 23.8115C12.3432 24.0336 11.5795 23.85 11.3061 23.4373C11.1266 23.1664 11.1124 22.7715 11.2733 22.525C11.4032 22.3258 12.4987 21.4404 12.7559 21.3266C13.0084 21.2149 13.5482 21.2368 13.8582 21.3713ZM16.4832 23.4963C16.9714 23.7083 17.2188 24.3305 16.9713 24.7241C16.8398 24.9333 15.7488 25.8247 15.4875 25.9365C14.9682 26.1586 14.2045 25.975 13.9311 25.5623C13.7516 25.2914 13.7374 24.8965 13.8983 24.65C14.0282 24.4508 15.1237 23.5654 15.3809 23.4516C15.6334 23.3399 16.1732 23.3618 16.4832 23.4963Z" fill="#28C700" stroke="#072500" stroke-width="2" mask="url(#path-1-inside-1_722_2858)"/>
</svg>
