<svg enable-background="new 0 0 612 361.48" height="361.48" viewBox="0 0 612 361.48" width="612" xmlns="http://www.w3.org/2000/svg"><path d="m33.366 174.151h.212c15.882.847 32.083 0 48.07 0h91.376s10.694.741 16.941-5.083c5.718-5.294 8.683-13.234 9.106-21.6 1.165-19.271-13.553-35.896-32.93-36.953-2.223-.106-4.553 0-6.67.212-2.33-18-19.059-32.612-40.129-33.882-15.882-.953-30.176 5.929-38.118 16.94-2.965-1.271-6.141-2.012-9.529-2.224-14.506-.847-30.918 9-29.647 27.212-35.258-2.434-44.364 53.259-8.682 55.378z" fill="#eee"/><path d="m335.66 217.351h.315c25.52 1.376 51.46 0 76.979 0h146.436s17.152 1.164 27.212-8.152c9.105-8.472 13.87-21.178 14.611-34.624 1.8-30.918-21.812-57.494-52.729-59.294-3.602-.212-7.2-.105-10.694.423-3.705-28.905-30.494-52.306-64.271-54.211-25.411-1.481-48.39 9.529-61.2 27.106-4.767-2.012-9.952-3.177-15.354-3.494-23.294-1.376-49.553 14.506-47.541 43.624-56.223-4.027-70.835 85.233-13.764 88.622z" fill="#eee"/><path d="m413.483 173.727c7.094-31.024 1.377-61.306-16.096-84.283-17.363-22.87-44.895-35.894-75.389-35.894-14.399 0-29.118 2.965-43.094 8.577-15.883-14.507-36.53-22.659-58.341-22.659-45.741 0-83.436 35.788-86.294 80.894-40.976 6.776-72.317 42.458-72.317 85.342 0 42.459 31.129 78.354 72.212 85.233 15.035 27.529 43.941 44.896 75.812 44.896 22.447 0 43.729-8.685 59.718-24.035 4.023.741 8.259 1.059 12.388 1.059 23.4 0 45-11.541 58.129-30.28 6.671 2.115 13.553 3.176 20.541 3.176 37.694 0 68.4-30.705 68.4-68.399.002-15.991-5.61-31.45-15.669-43.627z" fill="#ddd" stroke="#d3d3d1" stroke-miterlimit="10"/><g fill="#898988"><path d="m215.567 212.386h59.973v7.823h-59.973z"/><circle cx="284.207" cy="159.219" r="11"/><circle cx="206.803" cy="159.219" r="10.669"/></g></svg>