<svg width="30" height="30" viewBox="0 0 30 30" fill="none" xmlns="http://www.w3.org/2000/svg">
<circle cx="15" cy="15" r="14.5" fill="#00B775" stroke="black"/>
<path d="M24.5 24C24.5 25.4122 23.5434 26.7762 21.8138 27.8139C20.0942 28.8456 17.6864 29.5 15 29.5C12.3136 29.5 9.90576 28.8456 8.18618 27.8139C6.45665 26.7762 5.5 25.4122 5.5 24C5.5 22.5878 6.45665 21.2238 8.18618 20.1861C9.90576 19.1544 12.3136 18.5 15 18.5C17.6864 18.5 20.0942 19.1544 21.8138 20.1861C23.5434 21.2238 24.5 22.5878 24.5 24Z" fill="white" stroke="black"/>
<path d="M20.5001 12C20.5001 15.0376 18.0377 17.5 15.0001 17.5C11.9625 17.5 9.5001 15.0376 9.5001 12C9.5001 8.96243 11.9625 6.5 15.0001 6.5C18.0377 6.5 20.5001 8.96243 20.5001 12Z" fill="white" stroke="black"/>
</svg>
