<svg width="47" height="34" viewBox="0 0 47 34" fill="none" xmlns="http://www.w3.org/2000/svg">
<g filter="url(#filter0_d_722_1925)">
<path d="M5 10.5098C5 4.98691 9.47715 0.509766 15 0.509766H32C37.5228 0.509766 42 4.98692 42 10.5098V24.9847H15C9.47715 24.9847 5 20.5076 5 14.9847V10.5098Z" fill="white"/>
<path d="M5 10.5098C5 4.98691 9.47715 0.509766 15 0.509766H32C37.5228 0.509766 42 4.98692 42 10.5098V24.9847H15C9.47715 24.9847 5 20.5076 5 14.9847V10.5098Z" stroke="black"/>
</g>
<line x1="12" y1="7.8418" x2="36" y2="7.8418" stroke="black"/>
<path d="M12 13.2368H36" stroke="black"/>
<path d="M12 18.1318H36" stroke="black"/>
<defs>
<filter id="filter0_d_722_1925" x="0.5" y="0.00976562" width="46" height="33.4749" filterUnits="userSpaceOnUse" color-interpolation-filters="sRGB">
<feFlood flood-opacity="0" result="BackgroundImageFix"/>
<feColorMatrix in="SourceAlpha" type="matrix" values="0 0 0 0 0 0 0 0 0 0 0 0 0 0 0 0 0 0 127 0" result="hardAlpha"/>
<feOffset dy="4"/>
<feGaussianBlur stdDeviation="2"/>
<feComposite in2="hardAlpha" operator="out"/>
<feColorMatrix type="matrix" values="0 0 0 0 0 0 0 0 0 0 0 0 0 0 0 0 0 0 0.25 0"/>
<feBlend mode="normal" in2="BackgroundImageFix" result="effect1_dropShadow_722_1925"/>
<feBlend mode="normal" in="SourceGraphic" in2="effect1_dropShadow_722_1925" result="shape"/>
</filter>
</defs>
</svg>
